<svg xmlns="http://www.w3.org/2000/svg" width="187.488" height="24" viewBox="0 0 187.488 24">
  <g id="Layer_1" data-name="Layer 1" transform="translate(0 0.015)">
    <path id="Path_63" data-name="Path 63" d="M8.938,23.968C2.929,23.968,0,20.507,0,13.395V11.336C0,5.752,1.529,2.224,4.564.848A10.358,10.358,0,0,1,8.938,0a8.956,8.956,0,0,1,6.093,2.038,7.035,7.035,0,0,1,2.292,5.456H13.63a6.107,6.107,0,0,0-1.38-2.911A4.564,4.564,0,0,0,8.938,3.415,4.95,4.95,0,0,0,5.051,5.094C4.2,6.2,4.1,7.132,4.011,8.958a20.573,20.573,0,0,0-.086,2.251v2.123c0,2.739.4,4.586,1.189,5.626A4.594,4.594,0,0,0,8.957,20.55c1.72,0,2.951-.488,3.631-1.486a8.417,8.417,0,0,0,1.21-3.928h3.631a9.557,9.557,0,0,1-2.208,6.475,8.353,8.353,0,0,1-6.283,2.357Z" transform="translate(0 -0.001)" fill="#ff2633"/>
    <path id="Path_64" data-name="Path 64" d="M111.835,23.969c-3.249,0-5.626-.871-7.049-2.611s-2.186-4.713-2.186-8.747V10.827c0-3.673.743-6.433,2.208-8.195S108.629,0,111.835,0s5.564.892,7.049,2.654,2.272,4.564,2.272,8.195v1.868c0,3.97-.743,6.878-2.208,8.641S115.105,23.969,111.835,23.969Zm.043-20.551c-2.293,0-3.821.849-4.522,2.526a14,14,0,0,0-.828,5.393v1.274c0,3.057.428,5.1,1.317,6.221a4.246,4.246,0,0,0,1.571,1.21,5.456,5.456,0,0,0,2.441.514,5.286,5.286,0,0,0,2.42-.488,4.289,4.289,0,0,0,1.592-1.21,5.1,5.1,0,0,0,.871-1.868,16.574,16.574,0,0,0,.488-4.374V11.338a14.481,14.481,0,0,0-.849-5.393c-.722-1.677-2.226-2.526-4.5-2.526Z" transform="translate(-80.817 -0.002)" fill="#ff2633"/>
    <path id="Path_65" data-name="Path 65" d="M413.258,15.267a.679.679,0,0,1-.4-.149l-1.783-1.508-.043-.043h0l-.446-.361.68-.849,4.9-5.775a1.465,1.465,0,0,0,.212-1.571,1.443,1.443,0,0,0-1.337-.849h-.128l-9.235.806h-.063A.615.615,0,0,1,405,4.4l-.212-2.335a.616.616,0,0,1,.574-.68L417.993.3h.342a3.546,3.546,0,0,1,3.248,2.06A3.546,3.546,0,0,1,421.1,6.2l-7.346,8.832a.637.637,0,0,1-.491.233Z" transform="translate(-318.846 -0.238)" fill="#f93"/>
    <path id="Path_66" data-name="Path 66" d="M401.516,99.588a.615.615,0,0,1-.615-.616V96h18.234a.637.637,0,0,1,.637.637v2.335a.637.637,0,0,1-.637.616Z" transform="translate(-315.786 -75.62)" fill="#ff2633"/>
    <path id="Path_67" data-name="Path 67" d="M697.635,23.969c-3.248,0-5.626-.871-7.07-2.611s-2.166-4.713-2.166-8.747V10.827c0-3.673.743-6.433,2.208-8.195S694.429,0,697.614,0s5.584.892,7.07,2.654,2.272,4.564,2.272,8.195v1.868c0,3.97-.743,6.878-2.208,8.641S700.905,23.969,697.635,23.969Zm.043-20.551c-2.292,0-3.821.849-4.522,2.526a14,14,0,0,0-.828,5.393v1.274c0,3.057.428,5.1,1.317,6.221a4.247,4.247,0,0,0,1.571,1.21,5.457,5.457,0,0,0,2.441.514,5.287,5.287,0,0,0,2.42-.488,4.289,4.289,0,0,0,1.592-1.21,5.078,5.078,0,0,0,.849-1.868,15.633,15.633,0,0,0,.514-4.374V11.338a14.015,14.015,0,0,0-.871-5.393c-.7-1.677-2.208-2.526-4.48-2.526Z" transform="translate(-542.248 -0.002)" fill="#f93"/>
    <path id="Path_68" data-name="Path 68" d="M219.3,23.967c-3.461,0-5.838-.446-7.091-1.317s-1.8-2.463-1.8-4.777V0h9.235a8.534,8.534,0,0,1,6.259,2.251,7.388,7.388,0,0,1,2.14,4.416,42.821,42.821,0,0,1,.234,5.222l.043,2.675a19.235,19.235,0,0,1-.616,4.183,6.921,6.921,0,0,1-1.8,3C224.412,23.224,222.183,23.967,219.3,23.967Zm-4.879-6.327a2.4,2.4,0,0,0,1.168,2.272,7.439,7.439,0,0,0,3.546.574,5.037,5.037,0,0,0,4.012-1.677,4.915,4.915,0,0,0,.934-2.42,37.665,37.665,0,0,0,.191-4.48,35.814,35.814,0,0,0-.191-4.395,4.582,4.582,0,0,0-.955-2.335A4.768,4.768,0,0,0,219.193,3.5h-4.777Z" transform="translate(-165.73 0)" fill="#ff2633"/>
    <path id="Path_69" data-name="Path 69" d="M319.655,23.969c-2.675,0-4.564-.446-5.6-1.337S312.5,20.15,312.5,17.838V0H328.02V3.5H316.512v6.646h8.025l-.276,3.482h-7.749v3.864a2.86,2.86,0,0,0,.828,2.335,4.12,4.12,0,0,0,2.654.658h8.025v3.482Z" transform="translate(-246.155 -0.002)" fill="#ff2633"/>
    <path id="Path_70" data-name="Path 70" d="M511.712,23.969a13.142,13.142,0,0,1-5.945-1.083C502.923,21.443,501.5,17.43,501.5,11c0-3.821.806-6.624,2.441-8.389S508.081,0,511.436,0c5.86,0,8.7,3.185,8.7,9.7,0,.658-.021,1.677-.063,3.036H506.086v.4a9.1,9.1,0,0,0,1.083,5.01c.722,1.083,2.272,1.7,4.48,1.7a3.891,3.891,0,0,0,3.312-1.443,4.736,4.736,0,0,0,1.019-2.292H520.1c-.086,2.654-.849,4.629-2.272,5.86A9.344,9.344,0,0,1,511.712,23.969ZM511.33,3.715a5.011,5.011,0,0,0-3.715,1.4,5.952,5.952,0,0,0-1.4,4.289v.428h9.809V9.405a6.763,6.763,0,0,0-1.146-4.289,4.389,4.389,0,0,0-3.546-1.4Z" transform="translate(-395.028 -0.002)" fill="#f93"/>
    <path id="Path_71" data-name="Path 71" d="M810.087,23.968c-3.461,0-5.9-.615-7.24-1.826A6.087,6.087,0,0,1,801,17.217v-.106h4.161a3.244,3.244,0,0,0,1.189,2.59,6.742,6.742,0,0,0,3.737.786c3.143,0,3.8-1.549,3.8-2.866a3.411,3.411,0,0,0-1.4-3.057,4.966,4.966,0,0,0-1.507-.552l-4.289-.722c-3.524-.552-5.222-2.7-5.222-6.56A5.751,5.751,0,0,1,803.76,1.8,9.874,9.874,0,0,1,809.79,0c5.564,0,8.258,2.311,8.258,7.07V7.2h-3.991a3.424,3.424,0,0,0-1.189-2.611,5.153,5.153,0,0,0-2.972-.806,4.542,4.542,0,0,0-2.888.786,2.461,2.461,0,0,0-1.061,1.868c0,2.272,1.252,2.972,2.292,3.167l5.117.913c3.4.637,5.074,2.887,5.074,6.878v.615a5.564,5.564,0,0,1-2.506,4.437A10.507,10.507,0,0,1,810.087,23.968Z" transform="translate(-630.942 -0.001)" fill="#f93"/>
    <path id="Path_72" data-name="Path 72" d="M628.032.234V3.566c-1.953,0-6.2,2.14-6.624,2.335l-.191.106-.149.086-.234.128a1.72,1.72,0,0,0-.807,1.38V23.969H615.4V0h3.206l1.529,2.548,1.1-.467h.021l.128-.063h.022l1.889-.786h.043l1.8-.743h0l.106-.043h.021l.233-.1A3.864,3.864,0,0,1,627.035,0h.128a1.72,1.72,0,0,1,.871.234Z" transform="translate(-484.746 -0.002)" fill="#f93"/>
  </g>
</svg>
