<svg xmlns="http://www.w3.org/2000/svg" xmlns:xlink="http://www.w3.org/1999/xlink" width="38.844" height="24" viewBox="0 0 38.844 24"><defs><clipPath id="a"><rect width="38.844" height="24" fill="#ef426f"/></clipPath></defs><g clip-path="url(#a)"><path d="M15.455,8.046a1.684,1.684,0,0,1-1.209-.507c-1.582-1.605-4.83-4.152-6.815-4.152C4.98,3.388,3.116,6.04,3.1,6.067a1.694,1.694,0,0,1-2.807-1.9C.406,4,3.152,0,7.431,0c4.043,0,8.713,4.637,9.232,5.165a1.694,1.694,0,0,1-1.209,2.881" transform="translate(0)" fill="#ef426f"/><path d="M109.514,33.153a1.7,1.7,0,0,1-1.362-.685c-.756-1.012-3.384-3.9-5.487-3.9-2.455,0-4.345,2.676-4.363,2.7a1.7,1.7,0,0,1-1.4.73,1.676,1.676,0,0,1-.955-.3,1.7,1.7,0,0,1-.445-2.346c.116-.171,2.886-4.179,7.16-4.179,4.179,0,7.809,4.731,8.209,5.271a1.694,1.694,0,0,1-1.36,2.7" transform="translate(-72.362 -19.136)" fill="#ef426f"/><path d="M15.172,62a1.477,1.477,0,0,1-.995-2.572,36.759,36.759,0,0,0,4-4.034.141.141,0,0,0,.021-.15.426.426,0,0,0-.033-.056l-.031-.048c-.027-.044-.043-.068-.062-.1,0,0-.037-.061-.048-.075a14.325,14.325,0,0,1-1.12-2.134,4.023,4.023,0,0,1-.312-1.228,1.392,1.392,0,0,1,.775-1.128c.03-.015.058-.03.087-.042.086-.036.176-.072.271-.1a1.038,1.038,0,0,1,.137-.045,1.23,1.23,0,0,1,.155-.046c.077-.022.147-.039.219-.057s.142-.035.216-.049.122-.024.179-.033c.028,0,.048-.009.07-.01.072-.013.126-.021.179-.028l.029,0c.152-.02.313-.037.473-.048.08-.006.16-.009.242-.011s.156,0,.236,0h.005a6.479,6.479,0,0,1,1.09.092,3.184,3.184,0,0,1,1.776.792,1.324,1.324,0,0,1,.357.984,1.505,1.505,0,0,1-.018.2.231.231,0,0,1-.007.051,4.56,4.56,0,0,1-.3,1.051c-.044.114-.088.227-.135.333-.066.161-.138.315-.211.467-.055.113-.106.216-.16.317-.07.136-.131.245-.192.355l-.026.048c-.006.01-.013.02-.019.031-.072.126-.142.247-.216.368l0,.007a.148.148,0,0,0-.02.072.144.144,0,0,0,.047.106,10.508,10.508,0,0,0,2.641,1.839,15.786,15.786,0,0,0,4,.906,1.479,1.479,0,0,1,1.358,1.591,1.487,1.487,0,0,1-1.471,1.363c-.04,0-.08,0-.12,0a13.591,13.591,0,0,1-8.1-3.241.158.158,0,0,0-.1-.037.137.137,0,0,0-.1.046A52.112,52.112,0,0,1,16.181,61.6a1.5,1.5,0,0,1-.985.4Z" transform="translate(-10.406 -38)" fill="#ef426f"/></g></svg>