<svg width="56" height="56" viewBox="0 0 56 56" fill="none" xmlns="http://www.w3.org/2000/svg">
<path d="M28.0059 2C29.7007 2 31.3746 2.36642 32.9121 3.07324L33.2178 3.21973L33.2256 3.22363L41.1455 7.18652L41.1484 7.1875C42.5787 7.90635 43.8472 8.9113 44.874 10.1396C45.8366 11.2913 46.5683 12.6167 47.0303 14.043L47.1191 14.3291L47.1201 14.333L53.6904 36.6846C53.7084 36.7458 53.7224 36.8075 53.7344 36.8691C54.2071 38.6414 54.0425 40.5255 53.2627 42.1904C52.4545 43.9157 51.0435 45.2861 49.2949 46.042L49.2891 46.0439L33.2383 52.9268L33.2363 52.9277C31.5821 53.6351 29.8019 53.9999 28.0029 54C26.2038 54 24.4229 53.6352 22.7686 52.9277L22.7568 52.9229C17.2802 50.5387 10.056 47.4419 6.74707 46.041C4.9894 45.2974 3.56625 43.9329 2.74902 42.208C1.93183 40.4831 1.77742 38.5172 2.31445 36.6855V36.6846L8.88477 14.333L8.88574 14.3291C9.33999 12.7939 10.1042 11.3679 11.1309 10.1396C12.1577 8.9113 13.4261 7.90635 14.8564 7.1875L14.8604 7.18555L22.7881 3.22266L22.7949 3.21973C24.415 2.41759 26.1982 2.00006 28.0059 2ZM33.0029 24.3057V42.1484L43.5234 37.6406L38.7578 21.4258L33.0029 24.3057ZM12.4678 37.6016C15.2512 38.7927 19.239 40.5106 23.002 42.1289V24.2979L17.2432 21.417L12.4678 37.6016ZM28.0029 12.0146C27.7422 12.0146 27.4846 12.0753 27.251 12.1914L27.25 12.1904L24.1875 13.7217L28.002 15.6191L31.8164 13.7217L28.7539 12.1904V12.1914C28.5205 12.0754 28.2634 12.0147 28.0029 12.0146Z" fill="#596902"/>
<path d="M28.0059 2C29.7007 2 31.3746 2.36642 32.9121 3.07324L33.2178 3.21973L33.2256 3.22363L41.1455 7.18652L41.1484 7.1875C42.5787 7.90635 43.8472 8.9113 44.874 10.1396C45.8366 11.2913 46.5683 12.6167 47.0303 14.043L47.1191 14.3291L47.1201 14.333L53.6904 36.6846C53.7084 36.7458 53.7224 36.8075 53.7344 36.8691C54.2071 38.6414 54.0425 40.5255 53.2627 42.1904C52.4545 43.9157 51.0435 45.2861 49.2949 46.042L49.2891 46.0439L33.2383 52.9268L33.2363 52.9277C31.5821 53.6351 29.8019 53.9999 28.0029 54C26.2038 54 24.4229 53.6352 22.7686 52.9277L22.7568 52.9229C17.2802 50.5387 10.056 47.4419 6.74707 46.041C4.9894 45.2974 3.56625 43.9329 2.74902 42.208C1.93183 40.4831 1.77742 38.5172 2.31445 36.6855V36.6846L8.88477 14.333L8.88574 14.3291C9.33999 12.7939 10.1042 11.3679 11.1309 10.1396C12.1577 8.9113 13.4261 7.90635 14.8564 7.1875L14.8604 7.18555L22.7881 3.22266L22.7949 3.21973C24.415 2.41759 26.1982 2.00006 28.0059 2ZM33.0029 24.3057V42.1484L43.5234 37.6406L38.7578 21.4258L33.0029 24.3057ZM12.4678 37.6016C15.2512 38.7927 19.239 40.5106 23.002 42.1289V24.2979L17.2432 21.417L12.4678 37.6016ZM28.0029 12.0146C27.7422 12.0146 27.4846 12.0753 27.251 12.1914L27.25 12.1904L24.1875 13.7217L28.002 15.6191L31.8164 13.7217L28.7539 12.1904V12.1914C28.5205 12.0754 28.2634 12.0147 28.0029 12.0146Z" stroke="#E2F6A6" style="mix-blend-mode:plus-darker" stroke-width="4" stroke-linejoin="round"/>
</svg>
