<svg xmlns="http://www.w3.org/2000/svg" fill="none" viewBox="1.3 2.3 63.4 109.4">
  <path fill="#ad4b24" fill-rule="evenodd" d="m40.8 41 24-8v16zM64.8 65l-24-8 24-8zM24.8 41l-24-8v16zM.8 65l24-8-24-8z" clip-rule="evenodd"/>
  <path fill="#c96f42" d="m40.8 56.8-8 40 32 16v-48zM32.8 96.8l-8-40-24 8v48zM24.8 40.8l8-24L.8.8v32zM32.8 16.8l8 24 24-8V.8z"/>
  <path fill="#4c2b18" d="M0 .8q.2-1 1.1-.7l5.5 2.7 3.8 2c.1.1-.1.1.3.3l1 .4 8.7 4.5c4.3 2 9 3.8 12.5 6.4q.1.3-.2.2l-.2-.2c-.3.1-.2 0-.7-.2-.3-.2-.1 0-.3 0s-1.3-.5-1-.5h-.2l-2.2-1h-.3l-1-.6-.4-.1-.6-.3-1.1-.6-.8-.2-.8-.5q-.2 0-.5-.2l-.4-.2-.6-.3h-.1l-2.3-1.2-.4-.2c-.2-.1-1.3-.7-1.4-.6l-.3-.2-.5-.3-.7-.4-.3-.1c-.1 0-.7-.4-.5-.2l-.8-.5-.4-.2h-.3q-.2-.3-.8-.5l-1.9-1c-.2 0 0-.1-.3-.2l-.6-.2-.7-.5h-.4c-.2-.3 0-.2-.4-.3l-.3-.3q-.1-.1-.5-.2-.4 0-.5-.3l-.6-.2-.3-.2h-.2L5 3.2c-.6-.4.3.1.5.1v.1q.3.1.1 0-.2-.2-.5-.3 0 0 .2 0 0-.1 0-.1l-.8-.4.5.2c.1.2-.6.2-1-.2l-.7-.4.4.2-.3-.1q.2.1 0 0L2.4 2l.4.2c-.6-.4.9.3-.4-.4L3 2Q3 2 3 2q-.1-.3-.6-.4l-.2-.1q-.4-.1-.6-.4-.1.1 0 .2-.2-.1-.4-.1c.6.2 2.1 1 .7.4q.5.5-.4.1l-.3-.1v.8L1 3c0 .4 0-1.5.2-.3l.2 9.4v8.7s-.1-.9-.2-.2l.1.3c.2.8.2.3.2 1.6v9.7l.8.3.5.2.8.3 3.5 1.2c1.2.4.5.4 1 .6h.3q0 0 .1 0l2.5 1 .5.1.7.2-.3-.2 1.8.7c.4.1 0 .1.3.2.5.1.3-.1.8.3l.6.2h.1c3.2 1 6.5 1.6 9 3.2h.1l.2.1h-.1q.1.2 0 .3h-.1l-.6.2H24q-.2.3-.4.2l-.5.2v.1l.4-.1-.3.2.2-.1c-.5 0 0 .2-.5.1h-.3q.1.2.3 0c.2 0-.2.1-.2.2l-.2.2-.5.1-.3.2c-.2.1 0 0-.2 0a24.6 24.6 0 0 1-.5.3h.2q-.3.1-.5.2l-.4.1c-.3.2.5 0 .6-.1l-.1.1h-.3l-.7.4q-1.5.6-3 1-.3.3-.6.2l-.6.3-1.5.4-.5.3-2.8 1H10l-.4.3h-.2L9 47l-2.2.7h-.1c-.2 0 0 .1-.2.2q-.6 0-1 .3h-.2l-.2.1-1 .3-.2.1-.6.2 1.5.4c.1 0 1.1.4.9.5 0 0-.4-.1-.2 0h.2l.9.1 6 2 .3.2.4.1 2 .7c.5.2.3.3.4.4h.3l1.5.5h-.4.3l.2.2h.4-.2l1 .3h.1l.2.1h.2q.3.2.7.2l.9.4 4 1.3c.8.2.8 1.2 0 1.4q.2.2 0 .2h.1l.3 1 .1.2.1.5.1.2v.2l.2.6.2.3v.4l.1.2v.2l.1.3.2 1.2c.2.2 0 0 0 .2l.2.6v.4h.1v.5s0 .4.1.2v.7h.2v.4l.2 1v.8l.2.1c0 .2-.2 0 0 .2l-.1.2v.3q.3 0 .1.2l.2.3v.7-.2q0-.2-.1 0v.2h-.2l.1.4v-.2c0-.1.5 0 .4.4-.1.2-.2-.1 0 .3v-.2.1l.1.4v-.1c0 .3-.3-.4-.2.2v-.2h-.2v.8q.2 0 .2 0c0-.2-.1-1 .1-.3q0-.3.3 0v.6l-.3.1h-.2.1v.5q0 .3-.1.1v.7q.3 0 0-.5h.2v.4q0 .2.2.2v-.2l.1.3c0 .2-.2-.2 0 .4v.4q-.1.2-.1-.3c-.2 0 0 1.1 0 1.2.2.3 0-.2 0-.3q.2 0 .1-.1v-.2q.1-.3 0 .1c0 .1.1-.2.2 0v.3l.1.3c0 .2-.1-.3 0 .2q0 .3.2.1 0 .2 0 0v-.6l-.1-.4-.1.2v-.2s0-.3.1 0l-.1-.5h-.2l.1-.2v-.3c.2 0 .1.3.1-.3q0 .2-.2.3l-.1-.3v-.3c.1-.1 0-.7 0-.2V73q0 .1 0-.4 0 0 0-.1V72c0-.2.3.3 0 .5q.1 0 .1.1v.4c.2.1 0-.7.2-.2s1 3.3 1 4l.7 3s.2.9 0 .7c0 0 0-.3-.1 0l.1.1c.2.3.2.1.3.6l1 5v.3l.1.4.3 1.6c0 .5-.2.3-.2.5 0 .4.2 0 .3.2v1.3l.2.4v-.2l.1.9v.1c0 .2.2 0 0 .4v.3h.1q0 .2 0 0v.3l.1 1.8.2.7-.1.2q.3 0 .2.4v.3l.2.2-.1-.2v-.6l.1-1v-.2l.1-.4v-.6l.1-.5v-.3l.1-.5v-.7h.1l.3-1.1v-.9q.2 0 .1-.1l.1-.2.1-.4v-.4l.1-.4.1-.2.1-.5.2-.9.1-.2V86l.1-.4v-.1c0-.2.1 0 0-.2l.2-.2v-.8l.1-.1V84l.1-.6v.3q0 .2.1 0v-.2l.2.1.1-.4v.2q-.3 0-.2-.5c0-.1.1.2.1-.3v.2q0 0 0-.1h-.1q0-.1 0-.4v.1c.2-.3.1.5.3-.1v.2h.1l.1-.3v-.1l.1-.3-.1-.2c0 .3-.2 1-.2.4q-.2.1-.2-.2l.1-.2.1-.3h.3v.1h.2v-.6q.2 0 .2 0 .1-.3.2-.7-.2 0-.2.5v-.7l-.1.2v-.2c.1-.2.1.2.2-.5V79q.3 0 .1.4c.2.1.4-1 .4-1.1 0-.4 0 .2-.1.2q-.2 0-.1.1v.2q-.5.2 0 0 0-.1-.3-.1l.2-.4V78c0-.1 0 .3 0 0 .2-.5 0-.3 0-.3q0-.2-.1 0l-.1.3-.1.2v.4h.1c-.1.1-.2.4-.2.1v.5q.2.2 0 .2H36v.2c-.2 0 0-.3-.2.2q0-.2.2 0 0 0 0 .2t-.2.2c0 .2-.2.7 0 .2v.3c-.2 0 0 0-.2.3q0 0 0 .2l-.1.2c-.2.1-.2-.4 0-.5v-.1l.2-.4c0-.2-.2.7-.2.1l.5-4 .6-3c0-.2.1-1 .2-.8 0 0 0 .4.2.1v-.1c-.2-.4-.2-.2-.1-.7l1-5v-.3l.1-.4.4-1.5c.1-.6.2-.3.3-.5.2-.3-.1 0-.1-.2l.4-1v-.7.2l.2-.9c.1-.3-.1-.2.2-.4V61q0-.2 0 0l.2-.4q.3-.8.5-1.7l.1-.7q0 0 .2 0-.2-.2 0-.6v-.8h.2l.3-.2q0 0 0-.1v-.2h1l.4-.1.1-.1c-.1 0-1 .3-.3 0 .7-.5 5.3-2 6.3-2.4l4.7-1.7c.2 0 1.5-.5 1.2-.2 0 0-.4.2-.2.2l.1-.1.2-.1c.5-.3.2-.3 1-.5l6-2 .7-.3-5.4-1.8-.4-.2-.5-.2-2.5-.9q-.7-.2-.6-.3h-.2l-.2-.2q0 .1-.1.1l-1.9-.7h-.1l-.3-.2h-.3.2l-1.3-.4-.2-.2c-.3-.1-.2.2-.5-.2l-.5-.1c-.4 0 0 0 0 0v-.1l-.8-.3-.2-.1h-.2l-.4-.3h-.1l-1.5-.6-1.2-.4q-.1 0-.1-.1l-.8-.2-.4-.1q-.4 0-.7-.2h-.3.2V41h-.2.5v-.2l-.3.1.8-.3.2-.1.6-.2h.1v-.1l.7-.3-.6.2q-.1 0 .4-.3l-.2.1c.6-.1.1-.2.7-.2h.4q-.1 0-.4 0l.3-.1.3-.3.7-.2.3-.2h.4a49.7 49.7 0 0 1 .8-.4H46q.4 0 .6-.3l.6-.1c.4-.3-.7.1-.9.2l.2-.2h.4l1-.5 4-1.4 1-.3 1-.4 2-.6q.5 0 .7-.3l4-1.3.8-.2.7-.3h.3l.4-.2 1.2-.4V2l-4.4 2-4 2h-.3q-.2.3-.9.6-4.4 2-8.8 4.3c-4.3 2.2-8.5 5-12.6 6.1q-.3 0-.1-.3h.3q-.1-.3.6-.4c.3-.2 0-.1.2-.3.2 0 1.1-.7 1-.5l.1-.1 2.1-1.2.2-.2 1-.4.4-.3q.3 0 .6-.3l1.1-.6.7-.4.9-.4.4-.3.4-.2.6-.3q.1 0 .1 0L46 9.7c.5-.4.3-.1.4-.2l1.3-.7.4-.2.5-.2.8-.3.2-.2.5-.2.8-.4q.2 0 .5-.2l.2-.2.8-.3 2-1 .3-.1.5-.3.8-.4q.2 0 .3-.2c.3 0 .1.1.4-.2h.5q0-.2.5-.3.3-.4.4-.3l.6-.3c.3-.2.2 0 .3-.2h.2l1.1-.6c.7-.3-.3.2-.4.3h-.1q-.3.1 0 0l.5-.2V3q0 0 0 .1l.8-.4-.5.2c-.2 0 .2-.6.8-.7.4-.1-.2.2.7-.3l-.4.2q0 0 .3-.2s-.3.1 0 0q.3-.1.8-.5l-.3.3c.7-.3-.9.5.5-.1l-.5.2.1.2.7-.3q.2 0 .2-.2l.5-.2V1c-.6.4-1.6.8-.4.1q-.7.2.1-.3l.5-.1.5-.2q.3-.2.4.2V1q0 .2-.3 0V1l-.2.2v.1l.5.3V.8q0-.4-.4-.3-.3 0 0 0 .4-.2.5.3v1.5L65 3c0 .4 0-1.5.2-.3l.2 9.4v8.7s-.1-.9-.2-.2l.1.3c.2.8.2.3.2 1.6v10.3q0 .4-.4.7v.8l-.1.6c0 .3 0-1 .2-.3l.2 6.8v6.2s-.1-.6-.2-.1l.1.2c.2.6.2.2.2 1.1v2.7c-.1 1-.3.5-.3.8-.1.6.1.1.2.4l-.1 2.1v-.5c0 .3 0 .7-.1.2l-.1.4.1.6v-.3 1.6c0 .4.1.2-.1.6v.5c.1.4 0 .1 0 .1v.5l-.2 2.9v1.2l-.1.2q.1.3 0 .8 0 .1 0 .4l.1.1q.5.2.5.7v48q-.1 1-1 .7l-.9-.4-4.5-2.4-.3-.2-1.2-.5q-5.1-2.7-10.2-5.2c-5.1-2.5-10.6-4.7-14.7-7.6q-.2-.2.2-.2l.3.3c.3-.2.2-.1.8.2.3.2.1 0 .3 0 .3.1 1.5.6 1.2.6h.2l2.6 1.2.3.1 1.1.6.6.2.7.3 1.3.7.8.3 1 .6.6.1.5.3.7.3.1.1 2.7 1.4c.7.2.3 0 .5.2s1.5.8 1.6.7q.1.2.4.3l.5.3q.4.1 1 .5l.2.1c.2 0 .8.5.6.2l1 .6.5.3h.2l1 .6 2.2 1 .4.4.7.2.8.5.4.1c.3.2 0 .2.5.3l.4.3.6.3q.5 0 .5.3l.8.3.3.2h.3l.4.3.3.1v-.9.6c-.1.3-.5-.5-.3-1.2 0-.5.2.4 0-.8v.5-.4s0 .3 0 0v-1 .3c.1-.8.1 1.2.2-.5v.6h.2v-2 .1l-.2-.4v.9q-.3.7-.3-.4c0-.6 0-.2.1-.5v-1h.3v.3l.2-.2v-1.1s-.1.3 0-.1v-.2q0-.6.1-.2V103v1.2H65v-1c0-.2 0-1-.1-.7v.5l-.1-.6c.1-.7.2.5.2-1.3l-.1-.1v-1c.1-.4.2.6.1 1 .2.3.2-3 .2-3.2v.7q-.2-.1-.2.4s.1-.4.1-.1v.6q-.5.8 0-.3c-.1-.3-.2.5-.3 0v-.9c.1-.8 0 .1 0-.8 0-.5.1.8.1-.4 0-1 0-.5-.2-.5v.2l-.1.6v1.9l.2-.4v.3c-.1.2-.1.9-.2.3v1.4h.2q0 .3-.1.3v.2c0 .1 0-.2-.1 0v.4l-.1.8s0-.6.2-.5v2.6c-.2 0-.1 0-.2 1v1.1c-.1.4-.2-1 0-1.2V104c0-.4 0 1.8-.2.5l-.2-11.1V83.3s.1 1 .2.2l-.1-.4c-.2-1-.2-.4-.2-1.9V65.3l-2.5-.8c-1.4-.5-.7-.5-1.1-.7h-.5v-.1q.1.1-.1.1l-2.5-.8H57l-.3-.2-.5-.1-1.8-.7h-.3c-.1-.2-1-.4-1-.3q-.1-.2-.3-.2l-.3-.1q-.4 0-.6-.3h-.2c-.1 0-.6-.2-.4 0l-.6-.3-.4-.2h-.1l-.6-.2-1.5-.5-.3-.2h-.4l-.5-.3h-.3c-.2-.1 0-.2-.3-.1l-.2-.3q-.2 0-.4 0t-.4-.2h-.5l-.2-.2h-.2l-.8-.3c-.5-.2.3 0 .4 0v.1q.2 0 0 0l-.3-.2q0 0 .1 0 0-.1 0-.2h-.2q-.2.3-.8 0l-.5-.2h.3q0 .2-.2 0 .1.1 0 .1-.3-.2-.7-.2h.3c-.5-.2.7.2-.3-.2l.4.1v-.1H42l-1 .3v-.3c-.3 0 0 0-.2-.2h-.2v.7-.3l.1.2v-.1c-.1.3.2.1-.1.3h-.1v.2-.2q.2 0 .1.2l.1.1v1.1-.2.6-.4l.1.1v.7l-.3 1.9-.2.4v.4l-.2 1v.3l-.4 1.8-.1.3v.3l-.1.2v.2l-.3 1.3v.2l-.1.7H39v.2l-.2.6v.2l-.1.5-.3 1.3v.4l-.7 3q0 .8-.2 1.3l-.1.3v.5l-.2.5v.5l-.1.6-1 5-.5 1.8v.7q-.6 2-1 4.1c-.4 2.1-.3 4.4-1.4 6h-.3v-.4s-.2-.8-.3-.7v.2l-.1-.1q-.2-.1 0-.2l.1-.1v-.2q-.2.1-.1.2v-.1l-.2-.1-.1-.3v-.2H32v-.2q-.1-.2-.1 0l-.1-.3v.1l-.1-.2v-.3c-.2-.2 0 .3 0 .4h-.1V94l-.2-.4-.5-1.9v-.4l-.1-.4-.2-1v-.3l-.5-1.7v-.4l-.1-.3v-.4q-.2-.7-.3-1.3v-.2l-.2-.7v-.8l-.2-.2v-.5l-.3-1.3v-.3l-.1-.2-.6-3-.3-1.2v-.4l-.1-.4v-.5l-.3-.5v-.6q-.6-2.4-1-5l-.4-1.9q0 0 0-.1l-.1-.5-.8-4.2c-.3-1.7-1-3.4-1-5l-3.2 1-3 .9H18l-.7.3-6.7 2.2c-3 1-5.9 2.4-8.7 2.8l-.4.2v46.2l4.4-2c.1-.2 0 0 .4-.2l1.1-.7 10.3-5c5-2.6 10-5.7 14.8-7.2q.3 0 .1.3h-.4q.2.3-.7.5c-.3.2 0 .2-.2.3s-1.3.8-1.2.6l-.1.1-2.5 1.4-.3.2q-.6.2-1 .6-.3 0-.6.3-.3 0-.7.3c.3 0-.9.5-1.3.7l-.8.5-1 .5q-.2 0-.5.3l-.5.2-.7.4H20l-2.7 1.3c-.6.5-.3.2-.5.3s-1.6.7-1.5.8l-.5.2-.5.2q0 0 0 .1l-1 .4-.2.2c-.2 0-1 .3-.6.3q-.4 0-1 .4-.1 0-.5.2 0 .1-.2.2l-1 .4-2.2 1.2-.5.1-.6.4-1 .4-.3.2-.5.3h-.5q-.1.2-.5.4t-.6.3l-.7.4-.4.1-.2.2-.8.4q-.5.1-.5-.3v-.7h.1q-.1-.5-.1-1.2c0-.5.2.4 0-.8v.5-.4s0 .3 0 0v-1 .3c.1-.8.1 1.2.2-.5v.6h.2v-2 .1l-.2-.4v.9q-.3.7-.3-.4c0-.6 0-.2.1-.5v-1h.3v.3l.2-.2v-1.1s-.1.3 0-.1v-.2q0-.6.1-.2V103v1.2H1v-1c0-.2 0-1-.1-.7v.5l-.1-.6c.1-.7.2.5.2-1.3l-.1-.1v-1c.1-.4.2.6.1 1 .2.3.2-3 .2-3.2v.7q-.3-.1-.2.4s.1-.4.1-.1v.6q-.5.8 0-.3c-.1-.3-.2.5-.3 0v-.9c.1-.8 0 .1 0-.8 0-.5.1.8.1-.4 0-1 0-.5-.2-.5v.2l-.1.6v1.9l.2-.4v.3c-.1.2-.1.9-.2.3v1.4h.2q0 .3-.1.3v.2c0 .1 0-.2-.1 0v.4l-.1.8s0-.6.2-.5v2.6c-.2 0-.1 0-.2 1v1.1c-.1.4-.2-1 0-1.2V104c0-.4 0 1.8-.2.5L.1 93.4V83.3s.1 1 .2.2L.2 83c-.2-1-.2-.4-.2-1.9V65q0-.6.6-.8l.3-.1V63l-.1.5-.1-.4v.2c.1-.5-.2-.1 0-.5H1v-.3q-.2 0-.1.3l-.1-.3-.1-.2v-.5q0-.2-.1 0V61l-.1-.4v.2-.9c-.1-.3-.1.5-.1.6l-.1-.1v-1.1l-.1-3V.7m.5 111.4v.6q0 .4.4.3l.2-.1q.5-.3 0-.1H1q-.3.2-.3 0v-.5l.1.2c0-.2 0 .1.1 0v-.2zm.4.8h.2zm63.6-.2h.1m.2-.4q-.4 0 0 0v.1h.1v.1zm.1.2h.1m-64-.6v-.5zm4.1-1q-.5.1-.3.2zm56.3-.3H61q.5.2.3 0m-60-3c0 .3 0 0 0 0v.5l.1-.7zm64 0c0 .3 0 0 0 0v.5l.1-.7zM1.2 105h-.2v1c.1.4 0-1.7.2-.1zm64 0h-.2v1c.1.4 0-1.7.2-.1zM.7 106v-.4q0 .5-.1 0v-.1zm64 0v-.4q0 .5-.1 0v-.1zm-63.5-2v.9l.1-1zm64 0v.9l.1-1zm-64-2.7v.2s0-.6-.1-.2 0 .4 0 .8l.2-.1v-.9zm64 0v.2s0-.6-.1-.2 0 .4 0 .8l.2-.1v-.9zm-64-1v.6zm64 0v.6zM1 94.5c0-.2-.3.3-.3.5V96q0-.5 0 0c.1.1.1-.3.1-.3s.1.3.1-.4v.5l.2-1q-.1.4-.1-.4m64 0c0-.2-.3.3-.3.5V96q0-.5 0 0c.1.1.1-.3.1-.3s.1.3.1-.4v.5l.2-1q-.1.4-.1-.4m-33.1 0v.3-.4m-.8-4.9c-.4-.7 0 .4 0 .5h.1l.2.2q.2 0 0-.4h.2v.3q.4 0 .1-.5v.2-.2h-.2v-.3l-.1.1v.5-.2q-.2 0-.3-.3zm0 .4s-.1-.5.1-.1m.5-.7q-.1-.2-.2 0 .1.2.2 0m-.2-.6-.1-.3v.4zm-.5-.2v.2h.1zm.6-.2v.2zm-.6-.3q0 .1 0 .2-.1.2-.1.3l.2-.2zm0-.5-.2.2c.1.3.2-.2.2-.2m-.3-.3.1.2q0 0 0 .1zm.4-.5v.5q0 0 .1 0v.2q.1-.1 0-.2v-.3zm-.3 0q-.1 0-.2 0c0 .2.4.3.2 0M1 85.8v-.1zv.6s.1-1 .2 0v-.8L1 86zm64 0v-.1zv.6s.1-1 .2 0v-.8l-.2.4zm-34.8 0v.6-.6m.6.2c0-.2-.2.2 0 .3zM.6 83.9l-.2.4v.2c.3-.6 0 1.6.2.6q.1.4.2 0v.1q0-.4.2-.5v-.2c-.1.2-.2-.2-.3-.4zm64 0-.2.4v.2c.3-.6 0 1.6.2.6q.1.4.2 0v.1q0-.4.2-.5v-.2c-.1.2-.2-.2-.3-.4zm-34.3 1v.2c.4 0 0 .4.3.2q0-.1 0 0v-.4q-.1.3-.2 0zm4.6.2v.2q0-.1 0-.2M1.2 83.8c0 .3 0 1.7.1 1.3v-1.3zm64 0c0 .3 0 1.7.1 1.3v-1.3zm-35.3.5.1.3q0-.1 0-.2zM1.2 82.9v.3Q1 83 1 83v.3l-.2-.1v.9c.1-.2 0-.7.2-.7v1c.2-.3.2-.3 0-1.2q.4.3.2-.4m64 0v.3Q65 83 65 83v.3l-.2-.1v.9c.1-.2 0-.7.2-.7v1c.2-.3.2-.3 0-1.2q.4.3.2-.4m-34.9 1c-.3-.3 0 .5 0 .4q0-.2 0-.4M.6 83.5c0 .2-.2-.2-.2.1 0 .5.2.2.2-.1m64 0c0 .2-.2-.2-.2.1 0 .5.2.2.2-.1M.8 83l-.1.8s.1-.7 0-.8m64 0-.1.8s.1-.7 0-.8m-35.1.2c-.1-.7-.1-.2-.3-.3v.3-.1zm.6-.7q0-.1-.3 0 0 0 0 .2l.2.2.2-.1H30q.1-.3.2-.3m-29-.4-.1.6zm64 0-.1.6zM.9 80.3q-.2 0-.3.3v2h.2v-.3l-.1-.1v-.7c.2-.4 0 .6.2.6V81q-.1.2-.1-.1c0-.1.3-.1 0-.5m64 0q-.1 0-.3.3v2h.2v-.3l-.1-.1v-.7c.2-.4 0 .6.2.6V81q-.1.2-.1-.1c0-.1.3-.1 0-.5M30 82q-.3-.3-.4.2l.1.1q-.4-.3-.1.2c0-.3 0 0 0 0 .3 0 0-.5.4-.5m0 .1-.2.2q.2 0 0 0 .1 0 .2-.2m6-.2q0 0 .1 0v.2l.1-.3zm-35-1.1c0-.2-.1-.6-.1-.2zv.8-.3c0 1.8 0-.2.1-.4m64 0c0-.2-.1-.6-.1-.2zv.8-.3c0 1.8 0-.2.1-.4m-35.5.2v.1h.2v.2c-.2.3 0-.1-.2-.1l.1.4q-.1.1 0 .3l.3-.2-.1-.1V81zm0 .6c-.2-.7 0 0-.2.1q.1.2.2 0v-.3zm-.3-.5q-.1 0-.1.2zm7-.2-.1.4c.1.1.2-.7.2 0l.1-.4zm-.5.3V81q0 .2 0 0zm-6.5-.9q-.2.2 0 .5s-.3 0-.1.2v-.1h.2v-.2q.2 0 .2 0l-.1-.3v.3h-.1v-.4m.4.2q0 .1 0 .4zm6.7 0v.3l.2-.3zm-7.2.1-.2-.4zm.7 0q0-.2-.1 0zm0-.3c-.2.2-.2-.6-.3-.3l-.2.1v.2l.2.1.1.1zM1 78.7v.1c-.3 0-.2 1-.4.9.1 1 .3.2.4-.4l-.1-.2c.1.4.2 1 .1-.4m64 0v.1c-.3 0-.2 1-.4.9.1 1 .3.2.4-.4l-.1-.2c.1.4.2 1 .1-.4m-35.8 1s-.1.3-.2 0v.3zq.1.3.2.1h-.1zm7.5 0q0-.2-.2-.2v.3h.3v-.3h-.1zM.7 79v.2l-.1.2c0 .4.2-.1.2-.4m64 0v.2l-.1.2c0 .4.2-.1.2-.4m-28 .2v.2q0 0 0-.2m-36-1.9-.3.3q.1.4.2.2v.2l-.1.4c0 .4.1 0 .2.3v-1.4m64 0-.3.3q.1.4.2.2v.2l-.1.4c0 .4.1 0 .2.3v-1.4M1.1 77c0 2 0 .5.2 1V77v.2zm64 0c0 2 0 .5.2 1V77v.2zm-28.4 0-.2.2h-.1v.4q0-.1 0 0v-.1q.3.1.2-.1v.2l.2-.4q0 .1 0-.2m-7.9-.8q0 0-.1 0-.2 0 0 .2l-.2-.1v.3l.1.2.2-.2V76M.7 74.7c.3 1 .2-1.4.1-1zm64 0c.3 1 .2-1.4.1-1zM28 74.4v.2zm-.2-.4v.3h.2v-.1q0 .2.1 0v-.3zm10-.1q0-.3-.2-.1zv.3s.2-.3.1 0l.1-.3zM1 73q0 0 0 .4v.3zm64 0q0 0 0 .4v.3zM38 73v.5q0-.1 0-.4h.1m-.5 0h-.2v.1c.2-.1-.2.6 0 .3h.3l.1-.1zm.7-.3H38q-.1 0-.2 0l-.1.1h-.1v.3l.1-.2v.4q.3 0 .2-.5.2.2.2-.1m-10.6.1v.4h.2l-.1-.3m10.1-.1q-.1-.1-.2.2zm-.2 0q-.1.1-.2.1.1.2.2 0m-9.8-.3c-.1-.1.1.6-.1 0v.4h.2zm10.6 0-.2.2q.1 0 .2-.2m-.3-.7h-.3v.3q0 .3-.2.5h.3l-.1-.2v-.2c.3-.1 0 .2.1.2q.1-.1.1-.4s.3 0 0-.2m-9.8.8zv-.2zm10-.6q0-.1-.1 0l-.2.2c0 .3 0 0 .1 0 0 .6 0-.2.2-.2M1 71.6c-.3-.4 0-1.2-.2-.7 0 0 0 .4 0 0v.9c0-.1 0-.5.2.3v-.5m64 0c-.3-.4 0-1.2-.2-.7 0 0 0 .4 0 0v.9c0-.1 0-.5.2.3v-.5m-37.6.1v.3l.2-.1q0-.2-.1 0zm10.9-.5c-.1.3-.1 0-.1 0-.2 0-.2.4-.4.3 0 .4.2.1.3 0v-.1c0 .1.2.4.2-.2m-.3 0-.1.1-.1.1q.1.2.2-.1m0-.4q-.1.3-.3.2c0 .2.2 0 .2.2zv-.3h-.2q0 .3.1.2m.5-.2c-.1.7 0 .2.2.4v-.3zM1.3 68v1.8zm64 0v1.8zm-27 1.3s0 .4-.2.4c.2.4.3-.5.2-.4m.4-.1q-.1 0 0 .2zm-38-1-.1.8zm64 0-.1.8zm-26.3.1-.1.3q.2-.1.2.2v-.2c-.3-.2.2-.4 0-.3m.8-1-.1.4-.1.3V68zm-38 .2c0-.5-.3-.8-.2 0q.1.3.2 0m64 0c0-.5-.3-.8-.2 0q.1.3.2 0m-26.5-.2c0-.2-.3.2-.3.3zm.4-.2q-.1-.3-.2 0 .1.2.2 0M.6 65.4v1.8q0-.2 0-.4c.1-.2.1.1.2 0v-1l-.1.1zm64 0v1.8q0-.2 0-.4c.1-.2.1.1.2 0v-1l-.1.1zm-25.9.9v.1l-.1.2v.1q0 .3 0 .2t0-.1h.2v-.3q0-.2 0-.2m.4.1v.3zh.2zm-38-1v1-1.1m64 .1v.9-1.1zm-25.8.6c0-.2-.2.1-.3.1q0 .2.3 0m0-.6v.3-.2q.2 0 .2-.2zm-.2-.6-.1.1v.3zm-.3.1v.3q0 0 0-.2m.7.1h-.2zv.1zm25.4-.6q-.5 0-.1 0v.1l.2.2-.1.3c0 .4.2-.2.2-.3v-.2.4zM1 65v.2H.8 1q.3-.1 0-.1l.1-.2zm0 0v.2H.8zm.7-.2zm60.5-.4.7.2zm-22.7-.8q-.4-.2-.4.4l.1-.1v.1h.1v.4-.3l.2-.1v-.1.2l.1.3s0 .3.1 0c0 .8.2-.4.2-.5q0 0-.2 0v-.3q-.3 0-.2.3h-.2zm-.3 1q0-.3-.1-.2 0 .3.1.1m.5-.6c.2 0 0 .5 0 0q0 .1 0 0M4 63.7h-.4c-.1 0-1.4.6-.6.4zM64 50l-2 .6-.3.1-1 .3q-.2 0-.3.2l-1 .2-.2.1-.9.3-2.1.7-.4.1-.2.1-4.8 1.6-2 .7h-.5l-.7.4-.9.2-.7.4-1 .2-1.8.7 1.7.6 2 .7h.1l.7.2h-.4l.5.1.2.1.4.1.4.2-1-.4h.2l.5.2 1.2.3 4.8 1.5 1.1.4 1.1.3 2.4.9.9.2 4.6 1.5.3.2v-1l-.1.5-.1-.4v.2c.1-.5-.2-.1 0-.5h.2v-.3q-.2 0-.1.3l-.1-.3-.1-.2v-.5q0-.2-.1 0V61l-.1-.4v.2-.9c-.1-.3-.1.5-.1.6l-.1-.1v-1.1l-.1-3V50M1.5 51.5c0 1-.2.5-.2.8-.1.6.1.1.2.4l-.1 2.1v-.5c0 .3 0 .7-.1.2l-.1.4.1.6v-.3 1.6c0 .4.1.2-.1.6v.5c.1.4 0 .1 0 .1v.5L1 61.4v1.2l-.1.2q.2.3 0 .8 0 0 0 .4l2.7-.9c1.5-.4.8 0 1.3-.2 1-.2.1-.2.5-.3l3-.8.5-.1 1-.5-.5.1 2.2-.7c.4 0 0 .1.4 0 .5-.2.1-.2 1-.2l.6-.3c.6-.3.2 0 .2 0l.8-.3 2.4-.6h.1l.7-.3h.2l.5-.2h.2l.2-.1h.2l.8-.3 2.7-.9.6-.3.4-.1-.2-.1-.5-.2c-.3 0 1 .4.2.2-.8 0-5.4-1.5-6.5-1.9L12 53.5c-.2 0-1.5-.4-1.1-.5 0 0 .5.1.2 0h-.3l-1.2-.2L1.6 50zm1.7 12.1-.7.3.6-.1zm2-.5q-.6.2-.4.3l.3-.1q.2 0 .3-.2zm2-.7-.9.3h.4zM.3 60.7v.6-.6m64 0v.6-.6m-23.4-1.4v.2h-.1v-.3zm5.7-.2h-.2q.1 0 .2 0m-2.6-.8q.1 0 0 0M22 58h-.3l.6-.1zm0-.3h-.2zm1.5-.6-.2.1c.6 0-.6.3.4 0l-.4.2.1.1h.5l.2-.2h.2-.3q-.4 0 0-.1-.2 0-.3-.2zm-.6.2-.4.1c.3 0 0 .3.5 0h-.3zm19.2 0 .1.1m-19.1 0 .4-.1zm1.2-.1h.2zm-.4-.2h.2-.1m-.8-.8.2.1q.1 0-.2 0 0 0-.2 0h-.4q.2 0 .2.2c.2 0 1.1.4.3 0l.4.1q-.1.2.4.3h.1v-.1h.2l.4-.1h-.1q-.4 0-.5-.2h-.3.1c-.3-.2-.2.2-.3-.2H23m1 .7h-.2zm17.2-.3v.1h.2zm-17.4-.2.5.1zm-2.1-.2h-.1s-.3 0 .2.1h.1l.1.1zh-.2zm1.7.1.1.1m.3-.2v.1l.1.1h.4zm-.5 0v.1h.1zm-.1 0h.5l-.5-.2zm-.6-.2h.4zm-1-.4h.1l.4.2v-.2l-.5-.1m-.5-.2.3.1c.2 0-.2-.2-.3-.1M.4 52.7v.9l.2.3q.2-.1.2-.5v.5q.3.2.3-.7l-.1.2V53H.9v-.6l-.1.2v.6q0 .1 0 .2c-.1.2-.1-.3-.1-.4-.1-.2-.2 0-.2-.5zm64 0v.9l.2.3q.2-.1.2-.5v.5q.3.2.3-.7l-.1.2V53h-.1v-.6l-.1.2v.6q0 .1 0 .2c-.1.2-.1-.3-.1-.4-.1-.2-.2 0-.2-.5zm-64 .6c0 .2 0-.8.1-.1zm64 0c0 .2 0-.8.1-.1zM54 53.1q-.4 0-.1.1l.3-.1zm-42.6-.3h.3zm1.5-.3-.1.1h.2zM1 52.5q0-.5-.1-.2 0 .4.1.2m64 0q0-.5-.1-.2 0 .4.1.2M11 52q0 .1 0 0m-1 0h-.3l.1.1zm48.3-.3H58v.1l.4-.1zm-48.5 0h-.1m-1.9-.2.2.2.1-.1zm1.6.2q0 0-.2 0zm-.1-.1h.2zM1 51.3s-.1-.9-.2-.4v.7q.2 0 .2-.3m64 0s-.1-.9-.2-.4v.7q.2 0 .2-.3m-8.2.2h.1M.5 50.9v.4q0 0 0-.1zm64 0v.4q0 0 0-.1zm-63.3-.2-.2.4q0 0 .1 0zm64 0-.2.4q0 0 .1 0zm-7.3.3v.1h.1zm-50.1-.2-.2.1H8zM.6 50c-.1-.2-.1.3-.1.3q-.1.3-.1.5l.2-.2zm64 0c-.1-.2-.1.3-.1.3q-.1.3-.1.5l.2-.2zm-4 .6h-.1zm-55.1-.2v.1m54.6 0h.1m-56-.4.1.2v-.1q0 0-.1 0m57.4.1h-.2zM5 50.2h.2zm-.7 0zm1 0h.1m56.3-.3-.5.1.2.1zq0 0 0-.1m1.9 0-.2.1zm-.5-.5h-.3.3m1.5-.5v.1zM.9 48.8zm0 0zm2.2 0 .1-.1zm-.3-.7h-.2v.1h-.1q0 0-.2 0v.1c-.3 0 .3-.2-.2 0v.1h.5zM.4 48l-.1.3zm.4.1H1V48H.8zm64 0h.2V48h-.2m-59.3-.3h-.2l-.1.1-.2.1zm-1.1 0q-.2.1.2 0zM64 34l-2.8.9-3 .9H58l-.7.3-6.7 2.2c-2.8 1-5.6 2.3-8.3 2.8v.2h.3l-.2-.1q-.1 0 .2 0h.8l.2.1h.4-.1.3l.3.2c.3 0-.3-.2-.4-.2h.4l.5.1 2.3.7.5.2.5.1 1 .4.5.1 2.2.7.4.2.4.1.1.1h.3l1.6.6h.3q.4.2.7.3l.1.1h.2l.7.3h.2l.6.3 1.7.5.2.2h.2l3.7 1.2.7.2V34.1M.6 46.8q-.3.1 0 .7-.4 0-.2.3v-.1h.2v-.2q.2.2.2 0V47q0 .4-.2.4v-.6m64 0q-.3.1 0 .7-.4 0-.2.3v-.1h.2v-.2q.2.2.2 0V47q0 .4-.2.4v-.6m-63.4-13v.5L1 35c0 .3 0-1 .2-.3l.2 6.8v6.2s-.1-.6-.2-.1l.1.2v.1H2l.5-.4.7-.2 6-2 2.3-.7q0 0 .2 0l.5-.2 5.1-1.6c2-.7 4-1.7 6-2.1l-.2-.1h-.2l-1.7-.5H21l-.7-.2h-.4q0-.2-.4-.2h.2-.2l-.6-.2h-.3l-.2-.1h-.3l-.3-.2-.6-.1h-.1l-.2-.1-3.9-1.2-.9-.4q-.4-.2-1-.2l-2-.8-.7-.2-4-1.3-.7-.3-.8-.2-.2-.1-.5-.1zM1 47.1v.6zm64 0v.6zm-4 .4h-.3zm-59.7-.2q-.1-.3-.2 0 .1.2.2 0m64 0q-.1-.3-.2 0 .1.2.2 0m-59-.3H6c.1 0 .4 0 0 .2h.3q0-.2 0-.2M.4 47q0-.7-.1-.6zv.2h.1zm64 0q0-.7-.1-.6zv.2h.1zm-56-.1-.6.1-.4.2zm51 .1.2.1zm-58.3-.2c-.2.3 0-1-.1-.4q-.1-.3-.2 0v-.1q0 .3-.2.3v.2q.1-.2.3.2v.1q.2 0 .3-.2zm64 0c-.2.3 0-1-.1-.4q-.1-.3-.2 0v-.1q0 .3-.2.3v.2q.2-.2.3.2v.1q.1 0 .3-.2zm-4.4.3h-.1m-2.9-.5v.1m-49.1 0c.3 0 .4-.4 0-.1q-.2.1 0 .2m48.7-.1v.1h.2zm-47.6-.4q-.2.3-.5.2l.1.1.4-.2q0 0 .2 0zm48.3.1.2.1h.2zM9 46.1h-.3q0 0 0 .1zq0 0 0-.1m-8.4-.5s-.1.6-.2 0v.5l.2-.2v.2zm64 0s-.1.6-.2 0v.5l.2-.2v.2zm-54.5.5h-.2q.2 0 .4 0zm1.2-.3-.5.1c-.2.2.2 0 .3 0h.5zm46.3 0h.2zm-1.7 0h.3zm-44-.1q0-.1-.2-.1l-.2.1zm43-.3v.1q.3 0 0 0zm-40.6-.7h-.2v.2h-.6q0 .2-.3.3s-.6.2 0 0c-1 .6.7 0 .9-.2zm-1.2.4-.4.2zm.6 0h.1c.2 0-.8.3-.1 0m39 0h.2-.2m-.6-.3h.2l.2.2h.1l-.1-.1zm.5 0h.2zm-.3-.4.4.1zm-.4-.2v.1h.2zm-30.6-1.4-.4.1.5-.2m21.5-1.1h.3zm-1-.4h-.5c.2 0 1.4.5 1.3.3l-.4-.1zm.6.2v-.1m1.7-.2h-.4v-.1zm-2.3 0h.4-.4m-17.4-.4h-.2l-.1.1zm17.3-.2-.3.2h.2q.2-.1.1-.2m-9.3-24 .3.1h-.2.1v.1l.1.2s.2.5.3.4v-.2l.1.1q.2.1 0 .2h.2l.1.3h.1v.2q0 0 .1 0l.1.1h.1v.3q.1 0 0-.3h.1v.2l.2.2.4 1.1v.3l.2.2.1.6.2.2.3 1v.3l.2.1v.2l.3.9.2.5v.5h.1l.1.4.3.8v.2l.7 1.9.3.7v.2l.1.3v.3q.2 0 .2.3l.1.3q.6 1.5 1 3l.4 1.2v.3q.5 1.3.8 2.6c.5 1.2 1.4 2.3 1 3.7H41q-.1 0-.1-.2 0 0-.1 0-.3-.2-.1-.3h-.1l-.3-.7H40l-.1-.3-.1-.1v-.2q-.2 0-.2-.3l-.1-.2-.1-.2-.1-.1v-.2l-.1-.1-.2-.7q-.1-.1 0-.1l-.2-.4v-.3h-.1v-.2q0-.2-.1-.2v-.4h-.1v-.3l-.3-.5v-.5l-.1-.1v-.4q-.3 0-.1-.1l-.1-.2v-.1l-.2-.4.1.2h.1v-.2h.2l-.1-.3v.2q-.2 0-.4-.2.2 0 0-.2v.1l-.1-.3v.1c0-.2.3.2.2-.2v.2h.2v-.6l-.2.1s.1.5-.1.2h-.3v-.4h.3l.2-.2h-.1v-.2q0-.2.1-.1l-.1-.4v.3q0-.2-.2-.2 0-.1-.1-.1h-.1c0-.2.2 0 0-.4V30q.1-.1.1.2c.2 0 0-.7 0-.8-.2-.2 0 .2 0 .2q-.2 0-.1.1-.2.4 0 0 0 .1-.2.1 0-.1 0-.2l-.1-.2q0 .1 0 0 0-.3-.2-.1v.4l.1.2.1-.1-.1.2.1.2h.2l-.1.1v.2q-.2-.2 0 .2v-.2l.2.1v.2c-.1.1 0 .5 0 .1v.2q0 0 0 .2v.3c0 .1-.3-.2 0-.3h-.1V31c-.2 0 0 .4-.2.2l-1-2.4-.7-1.8s-.2-.5 0-.5c0 0 .1.3.1 0-.3-.2-.3 0-.4-.4l-1-3V23l-.4-1q.1-.3.2-.4-.1-.1-.2 0l-.1-.7q0-.1 0 0v-.2l-.2-.2v.1l-.1-.5q0 0 0-.1 0 0 0-.2v-.2q-.2 0 0 0v-.2l-.2-1.1-.2-.5h.1q-.2-.1-.2-.3v-.2l-.2-.1h.1v.4l-.1.7v.1l-.1.3v.1q0 0 0 .2l-.1.3v.2l-.1.3v.1l-.1.1v.2l-.3.7v.1q-.1.2 0 .4-.2 0-.1.1l-.1.1-.1.3q-.2.1 0 .2l-.2.2v.2l-.1.2-.2.6H31v.2l-.1.3q0 0 0 .2h-.2v.2q0 .1 0 .1v.2l-.1.1-.1.4q-.2.1 0-.2h-.1v.1h-.2q-.2 0-.1.2v-.2q.3.1.2.4-.1-.1-.1.2v-.2q0 0 0 .1h.1v.3l-.1-.1c-.1.2 0-.3-.2 0l-.1-.1-.1.1v.1l-.1.2.1.1c0-.2.2-.6.2-.1q.2-.1.2.1 0 0-.1 0l-.1.3h-.3V26h-.2v.3q-.1.2-.2 0l-.2.4q.3 0 .2-.2v.4h.1c-.1.2-.1-.1-.2.3v.3q-.3 0-.1-.3c-.1-.1-.4.6-.4.7l.1-.2s.3.1.1 0v-.2q.4 0 0 .1h.3q0 .3-.2.3 0 0 0 .2 0-.2 0 0t0 .2q0 0 .1 0l.1-.1.1-.2v-.3h-.1q.1-.2.2 0v-.3q0-.1 0-.1h.1v-.1l.2-.1h-.2q0 0 0-.2l.2-.1s.1-.4 0-.1v-.2l.2-.1q0 0 0-.1l.1-.2q.2.1 0 .3l-.1.1-.1.2c0 .1.2-.4.2 0l-.6 2.5L29 31s-.2.5-.3.4q0-.2-.1-.1v.1q.2.3.1.5l-1 3-.1.1v.2l-.4 1c-.1.3-.2 0-.3.2-.2.2.1 0 .1.2l-.3.5q0 .3-.1 0l-.1.2v.2h.1l-.2.5h-.1q.2.1-.1.2v.2q-.2.1-.2.2l-.5 1-.1.4H25v.5l-.1.4v-.3s.2-.5 0-.5v.2q-.2 0 0-.2v.1c0-.1-.3-.1 0-.2h.1-.1l-.1-.2v-.4q0-.1 0-.1V39v.1-.3.2l-.1-.1v-.4l.3-1.2.2-.2V37l.2-.5v-.2l.4-1 .1-.3v-.2h.1v-.2q0-.4.3-.8v-.1l.2-.4V33l.2-.3v-.1l.1-.3.3-.8v-.2l.7-1.9.2-.8.1-.1v-.3l.2-.3v-.3l.2-.4q.3-1.5 1-3 0-.5.4-1V23l.1-.3 1-2.5c.3-1.3.2-2.7 1.3-3.6m-8 24v.2h.3l-.1-.2zM1 39.8v.2s-.1-.2 0 .2L.6 40v.9l.3-.3v-.7q0 .3 0 0m64 0v.2s-.1-.2 0 .2l-.2-.3v.9l.3-.3v-.7q0 .3 0 0M.7 33.6l-.1.5q0-.1 0 .1v.1q0 .4-.1.1v1.2-.8h.1v.6c0 .1 0 .6.1.4v-.3l.1.4c-.1.4-.2-.3-.2.8h.1v.7c-.1.2-.2-.4-.1-.7-.2 0-.2 1.9-.2 2v-.4q.3 0 .2-.2c0-.1-.1.2-.1 0v-.3q.5-.6 0 .1c.1.2.2-.3.3 0V39c0 .3-.1-.5-.1.2s0 .3.2.3c0 0 0 .4 0 0v-.1L1 39V38l-.2.2V38c.1-.1.1-.5.2-.1v-.9H.7l.1-.2v-.1H1v-.3l.1-.4q0 .2-.2.2 0-.1 0-.4v-1.1q.2.1.2-.6v-.3zm64.4 0h-.2l.1.2H65v.2q0-.4.1 0l-.1-.2h-.2l-.1.3q0-.1 0 .1v.1q0 .4-.1.1v1.2-.8h.1v.6c0 .1 0 .6.1.4v-.3l.1.4c-.1.4-.2-.3-.2.8h.1v.7c-.1.2-.2-.4-.1-.7-.2 0-.2 1.9-.2 2v-.4q.2 0 .2-.2c0-.1-.1.2-.1 0v-.3q.5-.6 0 .1c.1.2.2-.3.3 0V39c0 .3-.1-.5-.1.2s0 .3.2.3c0 0 0 .4 0 0v-.1l.1-.4V38l-.2.2V38c.1-.1.1-.5.2-.1v-.9h-.2l.1-.2v-.1h.1v-.3l.1-.4q0 .2-.2.2 0-.1 0-.4v-1.1q.2.1.2-.6zM24.8 39v.2zm21.5-.7-.7.3.2-.2zm-46-1.6v.4q.1-.1 0-.4m64 0v.4q.1-.1 0-.4M26 36.3c0-.5-.1.2-.1.3l.2.2q.1 0 .1-.2h.2l-.2.2q.4.2.4-.2 0 0-.1 0h-.1v-.3q0 .2 0 .2H26v.1-.1zq0-.2 0 0M.3 36.2v.5-.2c.1 0 .2.3.2 0q0-.1 0-.4zm64 0v.5-.2c.1 0 .2.3.2 0q0-.1 0-.4zm-38.4.3c-.2 0 0-.4 0 0m.6-.1q0-.3-.1-.1m.1-.5v-.2l-.1.3zm.3-.1h-.2v.1zm-.7-.2v.2zM57 35c1.6-.7-1 .2-1.2.3q0 .1 0 .2l-.3.2h.2l1-.4.4-.2s.7-.3-.1 0m-30.6.4q-.1 0-.2 0l-.1.2h.2q0-.1 0-.2m29.7 0c-.2-.1 1.2-.6.3 0 .2-.2-.2 0-.3 0M26.6 35h-.2q0 .2.2 0m.3-.3-.2.2h.2v.2-.1l.1-.1v-.1q0 0 0-.1m30.5.3h-.2zm-31-.3v.2h.1v-.2m-26-.4-.1.6h.1v-.6m64 0-.1.6h.1v-.6m-37.7.2q-.1 0-.2 0 .1.2.2 0m.5-.2-.3.1zm32.2 0h-.5q0 .2.2 0zM26.5 34v.3zl.1-.2m-26-.4c-.1-.2 0 1-.2.1v.5h.2zm64 .3q0 .3-.1 0h-.1v.3h.2zm-4 0c.2-.2-.4 0-.5 0l-.7.2h.4q.4 0 .7-.2M3.6 34q-.1.1.1.2zM.9 34q0-.4.1 0l-.1-.3zm61 0h.2zm-23.6 0q0-.2 0 0m-11.2-.4v.1c.2.2-.2.3 0 .2h.2v-.1q-.2 0-.2-.2m34 0c-.4.2 0 .2.2.2zM2 33.7h.3zm.2-.2-.2.1.3.1v-.1zm60.3-.2-.7.3q0 0-.2 0h.3l.7-.2zm-61 .3h.2zm25.6-.4q0 .1 0 .2zm.5 0c-.2-.3-.3.3-.2.2q0-.2.2-.2m36 0q.1-.2-.2-.2c-.3.1-.5.5.1.2m1.2-.1-.5.2h.3zm-.7 0v.1m0 0h.1M3 33h.2zm-1.8 0 .1-.1h-.1m63.4-.5h-.2l-.1.1v.2l.1-.2zm-.5.1-.4.2zm-36.3-.3-.1.2v.1h.2-.1q.1-.2.2-.1zm-.8.1.2.2c.2-.4 0-.2-.2-.3zm.9-.2q-.1 0-.2 0 0 0 .1 0zm0 0q0-.4-.3-.1-.1-.2-.2.1.1 0 .1 0 .2-.2.4 0m0-.7h.1v.1c-.3.1 0 0-.1 0q-.1 0-.1.2s-.3 0 0 .1h.2v-.2q0-.2.2-.2zm10.2.3h.1q0 0 .1 0v-.1zm-10.4-.1c0-.4 0 0-.2 0q0 .1.1.1zq0 0-.1 0m9.9-.1v-.1q0 0-.2 0h.1m-37-1v.3c.4.3 0 1 .3.5 0 0 0-.3 0 0v-.7s0 .4-.1-.3zm64 0v.3c.4.3 0 1 .3.5 0 0 0-.3 0 0v-.7s0 .4-.1-.3zM38 31v.3c.2 0 0-.4.2-.1V31zm-10.3.1h-.2q.1.1.2 0m.6-.1-.2.1q.1.2.2-.1m.2.1h-.2zm-.5-.4q-.3 0-.1.3-.3 0-.2 0h.4V31q0 0-.1 0zm.2 0H28l.1.2h.1v.1h.2c-.2 0 .1-.4 0-.3zm9.8 0 .1.2zm-10.2-.2v.3h-.1c.1 0 .2-.4 0-.3m0 0 .3-.1v.1-.2q0 .1-.1 0zm10-.3h-.1v.2l.3-.1v-.2zM.4 28.8v.7q.2-.1 0-.4zm64 0v.7q.2-.1 0-.4zm-27.5 0-.2.3v.2q0 0 .1 0v-.1q.1 0 0-.1h.2V29q0 0-.1 0m-36-.7c-.3-.8-.2 1.2 0 .8 0 0-.1-.9 0-.8m64 0c-.3-.8-.2 1.2 0 .8 0 0-.1-.9 0-.8m-36 .3-.2.2q0 0 0 .1h.3l.2-.2H29q-.2 0-.2 0zm0-1.5v.2h.2V27zm7.5 0v.2s.1-.3.2 0v-.3zm-.5-.3-.2.2c.2-.2.2.4.3.1h.2v-.2H36m.5-.2.2.3zm-.6.1-.1.1q.1.1.1 0m.6-.3zh-.2v.1H36l.1.2v-.2h.1v.3q.4-.2 0-.3.4 0 .2-.2m-.4.2q-.1 0 0 .2zm-7 0 .2.1v-.2zm6.8-.6-.2.1h.1v.5l.3-.1h-.2V26c.2-.2 0 0 .2 0l-.1-.2q.2 0 0-.1m-6.7.5h.2l.1-.2c0-.1-.2.4-.2 0zM.4 26.1c0-1.6 0-.4-.2-.8v.7-.2zm64 0c0-1.6 0-.4-.2-.8v.7-.2zm-28-.2q0 0 0 .2zm-.2-.2q-.2 0-.2 0v.2q0 .1 0 0c.2.3 0-.1.2-.2M.9 24.7v1.2l.3-.3q-.1-.3-.2-.1v-.2L1 25c0-.3-.1 0-.2-.2m64 0v1.2l.3-.3q-.1-.3-.2-.1v-.2l.1-.4c0-.3-.1 0-.2-.2m-29 .7c-.3 0 0 .3-.3.3q.2.1.3-.2zq.3.1.1-.1m-6.6.3h.2-.1v-.2zm6.4-.2q-.1 0 0 0-.1 0-.2.2zm-.3-.3-.2.1zl-.2.2h.3q0-.1 0-.2zm.7-.3H36c.1.4 0 .1.3.1zM1 23.8c-.1-.8-.3-.2-.4.3l.1.2c-.1-.3-.2-.8-.1.4v-.1c.3 0 .2-1 .4-.8m64 0c-.1-.8-.3-.2-.4.3l.1.2c-.1-.3-.2-.8-.1.4v-.1c.3 0 .2-1 .4-.8m-29.7.8c.3.1 0-.4 0-.3zM1 24c0-.3-.2.2-.2.4q.1.2.1-.1zm64 0c0-.3-.2.2-.2.4q.1.2.1-.1zm-29.4 0q-.2.2 0 .2 0 0 0-.1m-.6-.3v.2q.1 0 .2 0c-.3 0 0-.3-.2-.2m-4.3 0q0 .1 0 .2zm4.2-.6q-.2 0-.1.3.2 0 0-.3M.8 21.6l.1.1v.5c-.2.4 0-.5-.2-.5v1q.1-.1.1.2s-.3 0 0 .4q.1 0 .2-.3v-1.6H.8zm64 0 .1.1v.5c-.2.4 0-.5-.2-.5v1q.1-.1.1.2s-.3 0 0 .4q.1 0 .2-.3v-1.6h-.2zm-29.5 1.3v.3l.1.1zM.6 22.6c0-1.6 0 .1-.1.3q0 .5.1.1v-.7zm64 0c0-1.6 0 .1-.1.3q0 .5.1.1v-.7zm-30 0q-.2 0 0 0v.2q0 .3.1.1v-.3zm.6.3c0-.1-.4-.1-.2 0zm-.3-.4.1.1h.1zm0-.2c0-.2 0 .1-.1.1zm-.2-.4q0 0 0 .2l.2-.1v-.3zm-.6 0v.2q.2 0 .1-.2m.2-.2zl.1.1zM.4 21.3l-.1.4zm64 0-.1.4zm-29.6.4h-.1m-.5-.3H34q.1.2.2 0m0-.6q-.2 0 0 .2H34v-.2q-.3 0-.1.4V21h.2v.2h.1v-.4.2h.3s0 .3 0 0c.3.4 0-.2 0-.3h-.3M.6 19.7q-.3.1 0 1-.4-.2-.2.4v-.2h.2v-.2q.2.1.2 0V20q0 .4-.2.6v-.9m64 0q-.3.1 0 1-.4-.2-.2.4v-.2h.2v-.2q.2.1.2 0V20q0 .4-.2.6v-.9M1 20.3v.7zm64 0v.7zm-30.4.6c.1 0 .2.3 0 0m-33.3-.4c0-.5-.2-.2-.2.1 0-.2.2.1.2-.1m64 0c0-.5-.2-.2-.2.1 0-.2.2.1.2-.1M.4 20.3c0-.3 0-1.5-.1-1v1zm64 0c0-.3 0-1.5-.1-1v1zm-63.3-.6c-.2.5 0-1.3-.1-.5q-.1-.3-.2 0v-.1q0 .4-.2.5v.2c.1-.3.2.1.3.2v.3l.3-.4zm64 0c-.2.5 0-1.3-.1-.5q-.1-.3-.2 0v-.1q0 .4-.2.5v.2c.1-.3.2.1.3.2v.3l.3-.4zM.6 18s-.1.8-.2 0v.7l.2-.3v.3-.7m64 0s-.1.8-.2 0v.7l.2-.3v.3-.7m-30.8 0v.2zM1 10v.5L.6 10v1.2q.1 0 .3-.5V10q0 .4 0 0m64 0v.5l-.2-.4v1.2q.2 0 .3-.5V10q0 .4 0 0M.7.8.6 1h.1v.1L.6 2s.1-.3 0 0v.3q0 .5-.1.1c0 .7-.1.8 0 1.6V3l.1-.2v1c0 .1 0 .7.1.5V4l.1.6c-.1.5-.2-.5-.2 1l.1.2v.8c-.1.3-.2-.5-.1-1-.2 0-.2 2.7-.2 2.9v-.6q.3 0 .2-.3c0-.1-.1.3-.1 0V7q.5-.7 0 .2c.1.3.2-.3.3 0v1.5c0 .5-.1-.6-.1.4 0 .8 0 .3.2.4v-.2l.1-.5V7.2l-.2.3v-.3c.1-.1.1-.7.2-.2V5.8H.7q0-.2.1-.2v-.2q0 0 .1 0V5l.1-.6s0 .5-.2.4V3.5C1 3.2 1 2 1 3.1v-.6c.2 0 .1.1.2-.7v-.5L.7 1h.1V1H.7h.1zm64.3.7v.2zl-.3.2V2s.1-.3 0 0v.3q0 .5-.1.1c0 .7-.1.8 0 1.6V3l.1-.2v1c0 .1 0 .7.1.5V4l.1.6c-.1.5-.2-.5-.2 1l.1.2v.8c-.1.3-.2-.5-.1-1-.2 0-.2 2.7-.2 2.9v-.6q.2 0 .2-.3c0-.1-.1.3-.1 0V7q.5-.7 0 .2c.1.3.2-.3.3 0v1.5c0 .5-.1-.6-.1.4 0 .8 0 .3.2.4v-.2l.1-.5V7.2l-.2.3v-.3c.1-.1.1-.7.2-.2V5.8h-.2q0-.2.1-.2v-.2q0 0 .1 0V5l.1-.6s0 .5-.2.4V3.5c.1-.3.1-1.6 0-.4v-.6c.2 0 .1.1.2-.7v-.3M.4 5.7v.5zm64 0v.5zM.3 4.8v.7-.3c.1 0 .2.5.2.1v-.6zm64 0v.7-.3c.1 0 .2.5.2.1v-.6zM8.9 5q-.4-.2-.4 0zm48-.5q-.3.1-.3.2.4-.1.2-.2M5.3 3.3l.1.1m-5-1-.1.9.1-.1v-.8m64 0-.1.9.1-.1v-.8M60 3H60zM.5 1.3c-.1-.3 0 1.5-.2.2v.7h.2zm64 .6q0 .2-.1 0h-.1v.3h.2zm-.5-.2-.2.1zm-63 0q0-.4 0 0v.1l-.1-.4zm63.3 0v-.1M1.7.8q.1 0 .2 0h.3L1.6.8zm39.2 56.2"/>
</svg>
