<svg width="28" height="31" viewBox="0 0 28 31" fill="none" xmlns="http://www.w3.org/2000/svg">
<path d="M10 16.5078C11.1046 16.5078 12 15.6124 12 14.5078C12 13.4032 11.1046 12.5078 10 12.5078C8.89543 12.5078 8 13.4032 8 14.5078C8 15.6124 8.89543 16.5078 10 16.5078Z" fill="black"/>
<path d="M18 16.5078C19.1046 16.5078 20 15.6124 20 14.5078C20 13.4032 19.1046 12.5078 18 12.5078C16.8954 12.5078 16 13.4032 16 14.5078C16 15.6124 16.8954 16.5078 18 16.5078Z" fill="black"/>
<path d="M14 0H13.465C11.6479 0.0703969 9.86281 0.499864 8.21257 1.26363C6.56232 2.02739 5.07963 3.11034 3.85001 4.45C1.37163 7.10904 -0.00447399 10.61 1.09284e-05 14.245V25C-0.000402252 25.5254 0.102713 26.0458 0.303465 26.5314C0.504218 27.017 0.798673 27.4582 1.17001 27.83L3.17001 29.83C3.92008 30.5796 4.9371 31.0006 5.99751 31.0006C7.05792 31.0006 8.07494 30.5796 8.82501 29.83L10 28.655L11.17 29.825C11.9201 30.5746 12.9371 30.9956 13.9975 30.9956C15.0579 30.9956 16.0749 30.5746 16.825 29.825L18 28.655L19.17 29.825C19.9201 30.5746 20.9371 30.9956 21.9975 30.9956C23.0579 30.9956 24.0749 30.5746 24.825 29.825L26.825 27.825C27.5756 27.0762 27.9982 26.0602 28 25V14C28 10.287 26.525 6.72601 23.8995 4.1005C21.274 1.47499 17.713 0 14 0ZM24 25L22 27L18.86 23.86C18.7471 23.7469 18.6131 23.6572 18.4655 23.596C18.318 23.5348 18.1598 23.5033 18 23.5033C17.8402 23.5033 17.682 23.5348 17.5345 23.596C17.3869 23.6572 17.2529 23.7469 17.14 23.86L14 27L10.86 23.86C10.7472 23.7469 10.6131 23.6572 10.4655 23.596C10.318 23.5348 10.1598 23.5033 10 23.5033C9.84024 23.5033 9.68205 23.5348 9.53448 23.596C9.38691 23.6572 9.25286 23.7469 9.14001 23.86L6.00001 27L4.00001 25V14.245C4.00001 8.83 8.20501 4.21 13.615 4H14C16.6522 4 19.1957 5.05357 21.0711 6.92893C22.9464 8.80429 24 11.3478 24 14V25Z" fill="black"/>
</svg>
