<svg width="30" height="29" viewBox="0 0 30 29" fill="none" xmlns="http://www.w3.org/2000/svg">
<path d="M14.7436 4.47088C15.2015 3.69707 15.5697 3.07785 16.1963 2.41098C17.5905 0.936939 19.5093 0.0714843 21.537 0.0021123C23.5344 -0.0489315 25.7993 0.828624 27.1667 2.25547C33.6866 9.05914 24.9316 17.5479 20.4986 22.0819C19.447 23.1106 18.456 24.1763 17.4882 25.2826C16.9772 25.8667 15.5649 28.0239 14.8309 28.1316C13.6973 27.9009 11.9094 25.1894 10.9641 24.1524C6.12445 18.843 -4.23782 10.4985 1.87883 2.67784C3.26572 0.904497 5.3872 0.184482 7.4525 0.00358334C8.11057 -0.0149281 8.76828 0.0527942 9.40876 0.205009C12.0273 0.833389 13.3912 2.29313 14.7436 4.47088Z" fill="#FF5F33"/>
</svg>
