<svg preserveAspectRatio="none" width="100%" height="100%" overflow="visible" style="display: block;" viewBox="0 0 20 20" fill="none" xmlns="http://www.w3.org/2000/svg">
<g id="arrow_forward">
<mask id="mask0_0_20" style="mask-type:alpha" maskUnits="userSpaceOnUse" x="0" y="0" width="20" height="20">
<rect id="Bounding box" width="20" height="20" fill="var(--fill-0, #FEC4B4)"/>
</mask>
<g mask="url(#mask0_0_20)">
<path id="arrow_forward_2" d="M12.4773 11.0208H4.62C4.33694 11.0208 4.09611 10.9219 3.8975 10.724C3.69889 10.5262 3.59958 10.2863 3.59958 10.0044C3.59958 9.72243 3.69889 9.48111 3.8975 9.28042C4.09611 9.07958 4.33694 8.97917 4.62 8.97917H12.4773L9.26542 5.76729C9.06069 5.56257 8.95639 5.32021 8.9525 5.04021C8.94847 4.76035 9.05035 4.51326 9.25813 4.29896C9.4659 4.09785 9.70972 3.99924 9.98958 4.00313C10.2694 4.00701 10.5119 4.1116 10.7171 4.31688L15.6708 9.27708C15.7694 9.37583 15.846 9.48861 15.9004 9.61542C15.9547 9.74236 15.9819 9.87167 15.9819 10.0033C15.9819 10.135 15.9547 10.2642 15.9004 10.391C15.846 10.518 15.7723 10.628 15.6794 10.721L10.7092 15.691C10.4936 15.9067 10.2533 16.0111 9.98812 16.0042C9.72312 15.9972 9.48674 15.8892 9.27896 15.6802C9.07118 15.4659 8.96729 15.2196 8.96729 14.9412C8.96729 14.6629 9.07118 14.4222 9.27896 14.2192L12.4773 11.0208Z" fill="var(--fill-0, #CD9F09)"/>
</g>
</g>
</svg>
