<svg preserveAspectRatio="none" width="100%" height="100%" overflow="visible" style="display: block;" viewBox="0 0 5.70475 5.70989" fill="none" xmlns="http://www.w3.org/2000/svg">
<path id="close_small" d="M2.8614 4.11927L1.54339 5.43457C1.35678 5.61469 1.14602 5.70643 0.91112 5.7098C0.676221 5.71317 0.462573 5.62143 0.270175 5.43457C0.0900583 5.24976 0 5.03876 0 4.80157C0 4.56451 0.0900583 4.35303 0.270175 4.16713L1.58547 2.84334L0.270175 1.5434C0.0900583 1.35678 0 1.14433 0 0.906062C0 0.667793 0.0900583 0.455831 0.270175 0.270176C0.454988 0.0900589 0.665987 0 0.903173 0C1.14024 0 1.35172 0.0900589 1.53762 0.270176L2.8614 1.58547L4.16135 0.270176C4.34797 0.0900589 4.56041 0 4.79868 0C5.03695 0 5.24891 0.0900589 5.43457 0.270176C5.60782 0.448607 5.69445 0.65798 5.69445 0.898297C5.69445 1.13861 5.60782 1.35172 5.43457 1.53762L4.11927 2.84334L5.43457 4.16135C5.61469 4.34797 5.70475 4.56041 5.70475 4.79868C5.70475 5.03707 5.61469 5.24904 5.43457 5.43457C5.25614 5.60782 5.04677 5.69445 4.80645 5.69445C4.56613 5.69445 4.35303 5.60782 4.16713 5.43457L2.8614 4.11927Z" fill="var(--fill-0, #D23A02)"/>
</svg>
