<svg preserveAspectRatio="none" width="100%" height="100%" overflow="visible" style="display: block;" viewBox="0 0 24 24" fill="none" xmlns="http://www.w3.org/2000/svg">
<g id="hov">
<mask id="mask0_0_9" style="mask-type:alpha" maskUnits="userSpaceOnUse" x="0" y="0" width="24" height="24">
<rect id="Bounding box" width="24" height="24" fill="var(--fill-0, #FF5F33)"/>
</mask>
<g mask="url(#mask0_0_9)">
<path id="hov_2" d="M12 21.2902C11.7862 21.2902 11.5783 21.241 11.3765 21.1425C11.1748 21.0438 11.0098 20.8877 10.8815 20.674L6.38475 13.3925C6.24708 13.1692 6.14617 12.9412 6.082 12.7087C6.01783 12.4761 5.98575 12.2398 5.98575 12C5.98575 11.7602 6.01783 11.5239 6.082 11.2913C6.14617 11.0588 6.24708 10.8308 6.38475 10.6075L10.8815 3.326C11.0098 3.11233 11.1748 2.95617 11.3765 2.8575C11.5783 2.759 11.7862 2.70975 12 2.70975C12.2138 2.70975 12.4217 2.759 12.6235 2.8575C12.8252 2.95617 12.9902 3.11233 13.1185 3.326L17.6153 10.6075C17.7529 10.8308 17.8538 11.0588 17.918 11.2913C17.9822 11.5239 18.0143 11.7602 18.0143 12C18.0143 12.2398 17.9822 12.4761 17.918 12.7087C17.8538 12.9412 17.7529 13.1692 17.6153 13.3925L13.1185 20.674C12.9902 20.8877 12.8252 21.0438 12.6235 21.1425C12.4217 21.241 12.2138 21.2902 12 21.2902Z" fill="var(--fill-0, #FF5F33)"/>
</g>
</g>
</svg>
