<svg preserveAspectRatio="none" width="100%" height="100%" overflow="visible" style="display: block;" viewBox="0 0 48 48" fill="none" xmlns="http://www.w3.org/2000/svg">
<g id="person_celebrate">
<mask id="mask0_0_22" style="mask-type:alpha" maskUnits="userSpaceOnUse" x="0" y="0" width="48" height="48">
<rect id="Bounding box" width="48" height="48" fill="var(--fill-0, #D9D9D9)"/>
</mask>
<g mask="url(#mask0_0_22)">
<path id="person_celebrate_2" d="M17.9895 40.7545V32.3735C16.1982 32.2028 14.4189 32.0123 12.6515 31.802C10.8842 31.5917 9.12153 31.3083 7.36353 30.952C6.83486 30.8323 6.41753 30.56 6.11153 30.135C5.80553 29.7103 5.72136 29.2342 5.85903 28.7065C5.97803 28.2168 6.2872 27.8483 6.78653 27.601C7.28586 27.354 7.8087 27.2898 8.35503 27.4085C10.884 27.9232 13.4335 28.2842 16.0035 28.4915C18.5739 28.6985 21.144 28.802 23.714 28.802C26.2904 28.802 28.8644 28.6985 31.436 28.4915C34.008 28.2842 36.5679 27.9232 39.1155 27.4085C39.6602 27.2898 40.1695 27.354 40.6435 27.601C41.1179 27.8483 41.4144 28.2215 41.533 28.7205C41.652 29.2198 41.564 29.6858 41.269 30.1185C40.974 30.5512 40.5555 30.8268 40.0135 30.9455C38.2509 31.3168 36.4924 31.6063 34.738 31.814C32.984 32.0213 31.2222 32.2058 29.4525 32.3675V40.7545C29.4525 41.3195 29.2585 41.7908 28.8705 42.1685C28.4825 42.5462 28.007 42.735 27.444 42.735H19.97C19.4047 42.735 18.9334 42.5462 18.556 42.1685C18.1784 41.7908 17.9895 41.3195 17.9895 40.7545ZM23.714 25.752C22.615 25.752 21.679 25.3677 20.906 24.599C20.1327 23.83 19.746 22.9 19.746 21.809C19.746 20.7207 20.1305 19.7855 20.8995 19.0035C21.6685 18.2215 22.603 17.8305 23.703 17.8305C24.8 17.8305 25.735 18.2198 26.508 18.9985C27.2814 19.7775 27.668 20.7107 27.668 21.798C27.668 22.8877 27.283 23.8192 26.513 24.5925C25.743 25.3655 24.81 25.752 23.714 25.752ZM7.76853 20.6305C6.9842 20.6305 6.3267 20.3587 5.79603 19.815C5.2657 19.2713 5.00053 18.613 5.00053 17.84C5.00053 17.1033 5.2657 16.4567 5.79603 15.9C6.3267 15.3433 6.9852 15.065 7.77153 15.065C8.5212 15.065 9.1697 15.3432 9.71703 15.8995C10.264 16.4555 10.5375 17.107 10.5375 17.854C10.5375 18.6253 10.2659 19.2808 9.72253 19.8205C9.17953 20.3605 8.5282 20.6305 7.76853 20.6305ZM39.6535 20.6305C38.8819 20.6305 38.2262 20.3587 37.6865 19.815C37.1465 19.2713 36.8765 18.613 36.8765 17.84C36.8765 17.1033 37.1484 16.4567 37.692 15.9C38.2357 15.3433 38.894 15.065 39.667 15.065C40.4037 15.065 41.0504 15.3432 41.607 15.8995C42.1637 16.4555 42.442 17.107 42.442 17.854C42.442 18.6253 42.1639 19.2808 41.6075 19.8205C41.0515 20.3605 40.4002 20.6305 39.6535 20.6305ZM13.8395 12.4805C13.0455 12.4805 12.3832 12.2153 11.8525 11.685C11.3222 11.1543 11.057 10.491 11.057 9.695C11.057 8.955 11.3222 8.31133 11.8525 7.764C12.3832 7.217 13.0465 6.9435 13.8425 6.9435C14.5825 6.9435 15.2262 7.215 15.7735 7.758C16.3205 8.30133 16.594 8.948 16.594 9.698C16.594 10.492 16.3224 11.1543 15.779 11.685C15.236 12.2153 14.5895 12.4805 13.8395 12.4805ZM33.6025 12.4805C32.8085 12.4805 32.1462 12.2153 31.6155 11.685C31.0852 11.1543 30.82 10.491 30.82 9.695C30.82 8.955 31.0852 8.31133 31.6155 7.764C32.1462 7.217 32.8095 6.9435 33.6055 6.9435C34.3455 6.9435 34.9892 7.215 35.5365 7.758C36.0835 8.30133 36.357 8.948 36.357 9.698C36.357 10.492 36.0855 11.1543 35.5425 11.685C34.9992 12.2153 34.3525 12.4805 33.6025 12.4805ZM23.701 8.8305C22.9297 8.8305 22.274 8.55867 21.734 8.015C21.1944 7.47133 20.9245 6.813 20.9245 6.04C20.9245 5.30333 21.1964 4.65667 21.74 4.1C22.2837 3.54333 22.942 3.265 23.715 3.265C24.4517 3.265 25.0984 3.54317 25.655 4.0995C26.2114 4.6555 26.4895 5.30683 26.4895 6.0535C26.4895 6.82517 26.2115 7.48083 25.6555 8.0205C25.0995 8.5605 24.448 8.8305 23.701 8.8305Z" fill="var(--fill-0, #FEC883)"/>
</g>
</g>
</svg>
