<svg width="30" height="34" viewBox="0 0 30 34" fill="none" xmlns="http://www.w3.org/2000/svg">
<path d="M14.6231 0C15.6495 0.166694 16.2829 1.3166 16.9159 2.11296C17.5032 2.84801 18.119 3.55978 18.762 4.24653C22.697 8.46842 29.0874 13.9306 29.5094 20.0754C29.6373 22.2429 28.901 24.1342 27.4634 25.7199C25.0704 28.3597 21.0367 28.9246 17.9741 27.1507C17.1492 26.673 16.5911 26.1573 15.9014 25.5106C16.8122 28.049 17.9565 30.2815 20.0309 32.0828C20.4487 32.4455 21.1658 33.0876 20.7725 33.6379C20.0836 33.9866 15.9621 33.821 14.9253 33.8154C13.1151 33.8191 10.9248 33.8882 9.11209 33.7599C8.80253 33.738 8.73746 33.6217 8.60027 33.4152C8.59377 33.2178 8.61429 33.05 8.75194 32.8949C9.73882 31.7944 10.8322 30.8333 11.6772 29.6056C12.569 28.3101 13.0894 26.8389 13.6707 25.3864C11.4841 27.817 8.57782 28.8245 5.38158 27.8237C3.41268 27.1913 1.77882 25.7972 0.844636 23.9523C-2.98027 16.383 7.17563 8.30411 11.5368 3.39098C12.3074 2.52287 13.7199 0.454079 14.6231 0Z" fill="#FF5F33"/>
</svg>
